<?xml version="1.0" standalone="no"?>
<!DOCTYPE svg PUBLIC "-//W3C//DTD SVG 20010904//EN"
 "http://www.w3.org/TR/2001/REC-SVG-20010904/DTD/svg10.dtd">
<svg version="1.0" xmlns="http://www.w3.org/2000/svg"
 width="849.000000pt" height="294.000000pt" viewBox="0 0 849.000000 294.000000"
 preserveAspectRatio="xMidYMid meet">

<g transform="translate(0.000000,294.000000) scale(0.100000,-0.100000)"
fill="#000000" stroke="none">
<path d="M4385 2529 c-558 -33 -946 -154 -1525 -477 -155 -86 -494 -286 -583
-343 -50 -32 -66 -38 -96 -33 -95 14 -892 -151 -1136 -236 -174 -61 -495 -234
-544 -294 -13 -15 -12 -32 7 -130 25 -127 27 -192 10 -266 -10 -45 -10 -56 7
-86 21 -40 49 -47 39 -10 -4 18 -1 25 13 30 46 13 255 46 264 41 5 -4 9 -26 9
-51 0 -24 4 -44 9 -44 24 0 29 101 6 120 -10 8 -31 11 -59 7 -51 -7 -56 0 -56
96 0 65 -9 88 -53 134 -17 18 -29 34 -26 36 7 6 451 67 487 67 35 0 41 -10 16
-31 -48 -40 -151 -228 -156 -286 -5 -46 15 -38 33 14 25 75 67 151 89 163 28
15 26 -4 -6 -60 -48 -84 -82 -220 -55 -220 5 0 19 33 31 72 38 126 99 224 134
216 12 -2 8 -14 -20 -56 -45 -67 -81 -157 -89 -227 -11 -87 24 -69 39 20 25
139 173 312 341 397 240 122 516 81 722 -107 85 -78 144 -167 173 -260 12 -38
23 -76 25 -82 6 -19 25 -16 25 5 0 40 -33 151 -60 206 -36 72 -37 76 -5 76 19
0 31 -12 59 -63 19 -34 40 -84 47 -112 15 -61 27 -87 39 -80 12 8 -17 121 -50
192 -16 35 -25 65 -21 67 20 13 54 -42 85 -136 12 -39 28 -74 35 -76 36 -12
-16 148 -79 240 -27 40 -78 102 -114 138 -36 35 -66 68 -66 72 0 17 213 108
254 108 10 0 15 -35 20 -152 9 -199 34 -476 45 -495 19 -34 22 13 11 150 -6
78 -12 225 -13 326 l-2 184 30 9 c53 15 494 38 1627 84 l167 7 5 -24 c3 -13 7
-179 10 -369 2 -190 8 -353 11 -362 20 -51 24 26 23 367 -1 206 1 377 4 380 8
8 241 22 628 36 353 12 570 4 680 -27 55 -15 168 -92 177 -120 2 -6 -32 -36
-74 -67 -94 -67 -156 -130 -213 -216 -41 -61 -109 -211 -110 -239 0 -32 23 -1
55 73 33 75 68 125 80 113 3 -3 -8 -35 -24 -72 -33 -73 -61 -159 -61 -189 0
-40 24 -8 49 68 44 128 89 205 122 205 25 0 25 -1 -13 -56 -41 -62 -87 -180
-88 -226 0 -21 3 -38 8 -38 4 0 22 41 41 91 42 111 96 194 175 266 127 115
244 164 411 170 91 4 124 1 188 -16 225 -61 377 -207 462 -443 28 -78 45 -99
45 -54 0 34 -38 152 -67 210 -27 53 -25 77 5 69 22 -5 67 -96 103 -206 22 -68
39 -87 39 -44 0 27 -40 148 -64 195 -18 35 -20 52 -6 52 13 0 54 -74 80 -143
12 -33 26 -55 32 -51 15 9 4 52 -38 149 -21 47 -35 88 -32 91 4 3 89 10 190
15 160 9 271 22 385 45 l31 6 4 -83 3 -84 -35 -35 c-24 -24 -42 -58 -57 -106
-39 -122 -23 -139 28 -30 l29 61 -6 -62 c-5 -45 -3 -63 5 -63 30 0 71 169 78
320 l5 125 -40 60 c-47 70 -58 108 -67 231 l-7 91 32 25 33 25 -12 95 c-11
100 -8 126 28 195 26 52 27 89 2 103 -11 5 -63 15 -118 20 -133 15 -160 23
-623 175 -447 147 -483 158 -686 209 -716 179 -1386 258 -1929 225z m775 -103
c340 -35 654 -87 978 -161 65 -15 72 -19 72 -41 0 -13 -2 -24 -4 -24 -3 0 -76
15 -163 34 -263 57 -541 102 -838 137 -224 26 -747 38 -917 20 -340 -36 -608
-111 -878 -246 -271 -136 -527 -301 -678 -437 -49 -44 -58 -48 -100 -47 -112
2 -113 1 155 180 136 92 288 190 337 218 178 104 440 226 596 277 141 46 419
93 645 108 126 8 656 -4 795 -18z m-524 -83 c-89 -297 -181 -583 -192 -600 -9
-15 -24 -23 -42 -23 -15 0 -128 -5 -252 -10 -691 -32 -895 -39 -903 -31 -4 4
-12 36 -17 71 -5 34 -16 70 -25 80 -16 17 -16 24 -1 86 10 47 22 73 38 86 44
33 314 166 408 201 270 100 560 152 873 156 108 1 118 0 113 -16z m141 9 c12
-7 9 -27 -77 -487 -13 -66 -28 -123 -34 -127 -6 -4 -48 -8 -93 -8 -63 0 -83 3
-83 13 0 14 28 105 131 430 l60 187 42 0 c23 0 47 -4 54 -8z m353 -17 c339
-32 844 -116 854 -141 5 -14 -29 -322 -40 -356 -3 -9 -13 -19 -22 -22 -59 -18
-1163 -85 -1195 -73 -13 5 -13 15 -2 74 96 519 99 532 120 536 25 4 79 1 285
-18z m1375 -165 c94 -27 314 -97 490 -155 302 -101 523 -165 566 -165 10 0 19
-4 19 -10 0 -5 -1 -10 -2 -10 -2 0 -55 -22 -118 -50 l-115 -49 -40 23 c-22 13
-85 49 -140 81 -202 118 -453 219 -770 310 -132 38 -163 54 -150 75 11 17 62
7 260 -50z m-274 -25 c237 -66 369 -107 369 -116 0 -25 -227 -137 -330 -162
-80 -20 -170 -35 -230 -39 l-45 -2 2 69 c2 73 28 269 38 286 9 14 20 12 196
-36z m567 -161 c53 -20 129 -52 167 -71 88 -45 302 -170 309 -182 10 -15 -58
-19 -364 -20 -162 0 -382 -6 -489 -11 l-195 -11 -37 43 c-21 24 -37 48 -35 53
1 6 47 22 102 37 55 14 124 36 154 48 67 26 208 102 241 129 13 11 30 20 37
21 7 0 57 -16 110 -36z m-3640 -76 c-5 -23 -10 -43 -11 -44 -10 -7 -149 -12
-142 -5 19 18 140 91 151 91 9 0 9 -12 2 -42z m-323 23 c-6 -5 -82 -57 -170
-115 -172 -115 -273 -169 -307 -164 -25 3 41 46 307 197 144 82 197 108 170
82z m90 -181 l-35 -70 -60 0 c-33 0 -60 2 -60 4 0 7 172 136 181 136 5 0 -7
-31 -26 -70z m239 57 c17 -13 39 -94 30 -109 -3 -5 -59 -8 -125 -8 -91 0 -119
3 -119 13 0 27 59 105 82 110 50 9 115 6 132 -6z m4491 -14 c-4 -16 -11 -44
-15 -63 -4 -24 -11 -34 -21 -31 -8 2 -55 6 -106 10 -50 3 -94 9 -98 12 -6 7
58 37 160 75 81 31 89 30 80 -3z m-1532 -58 c26 -31 34 -46 25 -49 -12 -4
-418 -37 -993 -81 -312 -23 -579 -35 -589 -25 -13 13 13 89 33 99 9 5 122 14
251 20 384 19 1071 67 1095 76 6 2 39 4 75 4 65 0 65 0 103 -44z m932 -93 c20
-23 66 -63 101 -88 35 -25 64 -50 64 -54 0 -5 -30 -11 -67 -15 -114 -11 -243
-34 -273 -50 -39 -20 -76 -71 -89 -122 -7 -24 -16 -43 -21 -43 -5 0 -33 9 -62
19 -143 53 -279 66 -475 46 l-71 -7 18 76 c10 42 24 111 31 154 6 42 16 82 21
89 5 6 38 15 74 18 100 11 423 23 576 21 l137 -1 36 -43z m-2532 31 c2 -5 -1
-28 -7 -53 l-11 -45 -85 -7 c-134 -10 -1009 -28 -1402 -28 -344 0 -358 1 -358
19 0 45 -21 43 625 71 536 23 737 32 885 39 215 11 348 12 353 4z m2862 -3
c39 0 47 -2 37 -12 -15 -15 -285 -18 -317 -4 -18 8 -17 10 10 17 17 4 73 6
125 4 52 -3 117 -5 145 -5z m200 -6 c24 -10 -1 -24 -41 -24 -45 0 -65 -27 -67
-95 -2 -57 -2 -58 33 -71 35 -13 35 -13 -25 -11 l-60 2 1 45 c1 108 16 133 89
151 41 10 51 10 70 3z m-5019 -26 c35 -6 64 -15 64 -19 0 -3 -7 -22 -15 -42
l-14 -35 -113 -6 c-62 -3 -229 -8 -371 -11 -284 -6 -406 -16 -572 -45 -122
-22 -154 -25 -140 -11 12 11 153 40 435 87 176 30 244 37 375 38 128 2 169 6
205 21 25 10 49 22 55 27 12 10 15 10 91 -4z m3609 -45 c-8 -74 -33 -208 -47
-251 -7 -24 -20 -38 -44 -48 -34 -14 -34 -14 -98 40 -144 122 -250 130 -1245
99 l-214 -6 7 54 c4 29 9 55 11 57 2 2 144 12 317 22 322 19 568 38 933 69
116 10 250 19 298 20 l88 1 -6 -57z m1223 -5 c-3 -22 -8 -23 -93 -26 -83 -2
-92 0 -120 22 l-30 25 123 1 c122 0 123 0 120 -22z m244 -2 c13 -31 4 -56 -20
-56 -11 0 -36 -7 -57 -16 -54 -22 -69 -13 -62 38 7 49 18 58 80 58 41 0 49 -3
59 -24z m-3206 -46 l54 0 0 -47 c0 -27 -4 -53 -8 -59 -7 -12 -168 -21 -1167
-64 -258 -12 -513 -25 -565 -29 -52 -5 -99 -5 -104 -1 -4 5 -5 44 -1 87 l7 79
791 13 c436 8 819 17 852 21 33 4 66 5 73 3 8 -1 38 -3 68 -3z m2954 -30 c0
-13 -7 -20 -20 -20 -21 0 -80 26 -80 35 0 3 23 5 50 5 43 0 50 -3 50 -20z
m-4792 -98 c3 -101 -5 -115 -50 -91 -29 16 -215 14 -234 -2 -19 -16 -17 -37 6
-66 25 -32 25 -35 1 -50 -16 -10 -35 -4 -123 40 -56 29 -142 63 -190 76 -78
20 -105 22 -235 19 -160 -5 -202 -15 -343 -81 -63 -30 -75 -32 -154 -29 -47 2
-86 7 -86 10 0 4 37 30 83 59 45 29 100 70 123 91 37 35 51 41 130 56 216 40
617 66 974 62 l95 -1 3 -93z m4766 28 c25 -10 46 -25 46 -31 0 -24 -41 -255
-51 -286 -12 -38 -40 -49 -160 -63 -148 -17 -148 -17 -220 50 -35 33 -88 77
-116 97 -42 29 -53 42 -53 64 0 75 57 143 134 159 169 34 354 39 420 10z m236
-13 c0 -22 31 -231 35 -238 4 -5 -3 -9 -14 -9 -29 0 -88 63 -100 107 -6 21
-11 59 -11 85 0 45 1 47 33 51 17 2 38 5 45 5 6 1 12 1 12 -1z m-117 -77 c7
-84 38 -142 94 -179 26 -17 54 -31 63 -31 20 0 64 -56 57 -74 -4 -11 -62 -28
-137 -40 -77 -13 -464 -26 -473 -17 -12 12 13 18 116 26 98 7 145 23 168 55
10 15 28 84 44 170 23 131 36 167 56 155 3 -3 9 -31 12 -65z m-6193 55 c0 -6
-129 -45 -144 -44 -6 1 21 12 59 24 74 25 85 28 85 20z m-321 -60 c-3 -2 -54
-30 -114 -61 -61 -31 -125 -70 -142 -87 -55 -52 -37 -97 37 -97 74 0 292 59
345 94 17 11 44 13 119 9 53 -3 96 -9 96 -12 0 -10 -64 -58 -85 -64 -11 -3
-74 -11 -140 -17 -66 -6 -190 -22 -277 -35 -86 -14 -164 -22 -175 -18 -29 11
-83 54 -83 67 0 19 172 116 370 208 34 16 58 23 49 13z m276 -11 c-38 -29
-223 -124 -276 -142 -76 -26 -228 -56 -237 -47 -10 10 57 64 88 72 14 3 104
32 200 63 229 76 264 84 225 54z m675 -29 c123 -16 247 -68 360 -151 66 -48
180 -159 180 -175 0 -22 -29 -5 -75 42 -252 258 -588 329 -902 190 -65 -29
-83 -31 -83 -10 0 11 94 56 175 84 45 15 237 36 275 29 8 -1 40 -6 70 -9z
m4583 4 c147 -21 258 -68 377 -159 81 -62 116 -97 107 -106 -8 -9 -45 14 -113
70 -73 61 -204 128 -295 151 -51 14 -92 16 -209 12 -80 -3 -162 -11 -183 -17
-22 -6 -41 -9 -44 -6 -14 13 22 34 75 44 31 7 66 13 77 16 40 8 138 6 208 -5z
m-3989 -9 c-5 -5 -38 -21 -73 -35 -58 -23 -65 -23 -87 -8 -26 17 -31 38 -11
46 24 10 181 7 171 -3z m3586 -50 c0 -5 -44 -38 -97 -73 -54 -36 -126 -94
-160 -131 -62 -65 -106 -90 -83 -45 25 46 150 158 230 207 83 51 110 61 110
42z m-4115 -24 c120 -33 250 -107 348 -198 26 -24 47 -50 47 -56 0 -28 -44 -7
-121 58 -153 129 -283 180 -460 180 -87 0 -121 -5 -185 -26 -93 -30 -176 -75
-258 -138 -32 -25 -68 -46 -80 -46 -17 1 -11 11 36 55 100 93 241 164 373 186
72 11 230 3 300 -15z m4606 -2 c121 -31 286 -133 364 -226 28 -33 28 -33 6
-36 -15 -2 -40 12 -77 45 -85 75 -172 130 -259 165 -71 28 -94 32 -201 36
-189 6 -309 -35 -464 -158 -67 -54 -110 -74 -110 -52 0 10 73 79 125 119 79
60 190 106 300 124 71 11 240 2 316 -17z m-5247 -92 c-21 -19 -64 -59 -95 -88
-54 -53 -79 -66 -79 -42 0 17 146 157 173 167 40 16 41 -2 1 -37z m-728 -113
c89 -70 102 -92 110 -180 5 -59 3 -77 -8 -87 -14 -11 -157 -36 -165 -29 -2 3
2 36 8 75 11 67 5 152 -18 250 -3 12 -2 22 2 22 4 0 36 -23 71 -51z m6425 -31
c6 -11 8 -22 5 -26 -8 -8 -57 39 -50 49 7 12 33 -1 45 -23z"/>
</g>
</svg>
